<!DOCTYPE svg PUBLIC "-//W3C//DTD SVG 1.1//EN" "http://www.w3.org/Graphics/SVG/1.1/DTD/svg11.dtd">
<!-- Uploaded to: SVG Repo, www.svgrepo.com, Transformed by: SVG Repo Mixer Tools -->
<svg fill="#92dd9f" version="1.1" id="Layer_1" xmlns="http://www.w3.org/2000/svg" xmlns:xlink="http://www.w3.org/1999/xlink" viewBox="-6.4 -6.4 76.80 76.80" xml:space="preserve" width="800px" height="800px" stroke="#92dd9f">
<g id="SVGRepo_bgCarrier" stroke-width="0"/>
<g id="SVGRepo_tracerCarrier" stroke-linecap="round" stroke-linejoin="round" stroke="#4b4444" stroke-width="1.28"> <g> <g> <path d="M15,11c-3.859,0-7,3.141-7,7v10h2v-4h10v4h2V18C22,14.141,18.859,11,15,11z M20,22H10v-4c0-2.757,2.243-5,5-5s5,2.243,5,5 V22z"/> </g> </g> <g> <g> <path d="M20.294,47C21.325,46.175,22,44.921,22,43.5c0-2.481-2.019-4.5-4.5-4.5H9c-0.553,0-1,0.447-1,1v7v7c0,0.553,0.447,1,1,1 h8.5c2.481,0,4.5-2.019,4.5-4.5C22,49.079,21.325,47.825,20.294,47z M17.5,53H10v-5h7.5c1.379,0,2.5,1.121,2.5,2.5 S18.879,53,17.5,53z M17.5,46H10v-5h7.5c1.379,0,2.5,1.121,2.5,2.5S18.879,46,17.5,46z"/> </g> </g> <g> <g> <path d="M53,34H33c-1.641,0-3.088,0.806-4,2.031c-0.292-0.393-0.638-0.739-1.031-1.031C29.194,34.088,30,32.641,30,31V11 c0-2.757-2.243-5-5-5H5c-2.757,0-5,2.243-5,5v20c0,1.641,0.806,3.088,2.031,4C0.806,35.912,0,37.359,0,39v20c0,2.757,2.243,5,5,5 h20c1.641,0,3.088-0.806,4-2.031C29.912,63.194,31.359,64,33,64h20c2.757,0,5-2.243,5-5V39C58,36.243,55.757,34,53,34z M2,31V11 c0-1.654,1.346-3,3-3h20c1.654,0,3,1.346,3,3v20c0,1.654-1.346,3-3,3H5C3.346,34,2,32.654,2,31z M28,59c0,1.654-1.346,3-3,3H5 c-1.654,0-3-1.346-3-3V39c0-1.654,1.346-3,3-3h20c1.654,0,3,1.346,3,3V59z M56,59c0,1.654-1.346,3-3,3H33c-1.654,0-3-1.346-3-3V39 c0-1.654,1.346-3,3-3h20c1.654,0,3,1.346,3,3V59z"/> </g> </g> <g> <g> <path d="M49,43v-3c0-0.553-0.447-1-1-1h-3.5c-4.687,0-8.5,3.813-8.5,8.5c0,4.686,3.813,8.5,8.5,8.5H49v-2h-4.5 c-3.584,0-6.5-2.916-6.5-6.5s2.916-6.5,6.5-6.5H47v2H49z"/> </g> </g> <g> <g> <path d="M59,0H45c-2.757,0-5,2.243-5,5v5.586l-7.707,7.707c-0.286,0.286-0.372,0.716-0.217,1.09C32.23,19.757,32.596,20,33,20h26 c2.757,0,5-2.243,5-5V5C64,2.243,61.757,0,59,0z M62,15c0,1.654-1.346,3-3,3H35.414l6.293-6.293C41.894,11.519,42,11.266,42,11V5 c0-1.654,1.346-3,3-3h14c1.654,0,3,1.346,3,3V15z"/> </g> </g> <g> <g> <rect x="44" y="5" width="16" height="2"/> </g> </g> <g> <g> <rect x="44" y="9" width="16" height="2"/> </g> </g> <g> <g> <rect x="44" y="13" width="16" height="2"/> </g> </g> <g> <g> <rect x="56" y="22" width="2" height="2"/> </g> </g> <g> <g> <rect x="52" y="22" width="2" height="2"/> </g> </g> <g> <g> <rect x="48" y="22" width="2" height="2"/> </g> </g> <g> <g> <rect x="52" y="26" width="2" height="2"/> </g> </g> <g> <g> <rect x="48" y="26" width="2" height="2"/> </g> </g> <g> <g> <rect x="44" y="26" width="2" height="2"/> </g> </g> <g> <g> <rect x="23" y="30" width="2" height="2"/> </g> </g> <g> <g> <rect x="19" y="30" width="2" height="2"/> </g> </g> <g> <g> <rect x="15" y="30" width="2" height="2"/> </g> </g> <g> <g> <rect x="23" y="58" width="2" height="2"/> </g> </g> <g> <g> <rect x="19" y="58" width="2" height="2"/> </g> </g> <g> <g> <rect x="15" y="58" width="2" height="2"/> </g> </g> <g> <g> <rect x="51" y="58" width="2" height="2"/> </g> </g> <g> <g> <rect x="47" y="58" width="2" height="2"/> </g> </g> <g> <g> <rect x="43" y="58" width="2" height="2"/> </g> </g> </g>
<g id="SVGRepo_iconCarrier"> <g> <g> <path d="M15,11c-3.859,0-7,3.141-7,7v10h2v-4h10v4h2V18C22,14.141,18.859,11,15,11z M20,22H10v-4c0-2.757,2.243-5,5-5s5,2.243,5,5 V22z"/> </g> </g> <g> <g> <path d="M20.294,47C21.325,46.175,22,44.921,22,43.5c0-2.481-2.019-4.5-4.5-4.5H9c-0.553,0-1,0.447-1,1v7v7c0,0.553,0.447,1,1,1 h8.5c2.481,0,4.5-2.019,4.5-4.5C22,49.079,21.325,47.825,20.294,47z M17.5,53H10v-5h7.5c1.379,0,2.5,1.121,2.5,2.5 S18.879,53,17.5,53z M17.5,46H10v-5h7.5c1.379,0,2.5,1.121,2.5,2.5S18.879,46,17.5,46z"/> </g> </g> <g> <g> <path d="M53,34H33c-1.641,0-3.088,0.806-4,2.031c-0.292-0.393-0.638-0.739-1.031-1.031C29.194,34.088,30,32.641,30,31V11 c0-2.757-2.243-5-5-5H5c-2.757,0-5,2.243-5,5v20c0,1.641,0.806,3.088,2.031,4C0.806,35.912,0,37.359,0,39v20c0,2.757,2.243,5,5,5 h20c1.641,0,3.088-0.806,4-2.031C29.912,63.194,31.359,64,33,64h20c2.757,0,5-2.243,5-5V39C58,36.243,55.757,34,53,34z M2,31V11 c0-1.654,1.346-3,3-3h20c1.654,0,3,1.346,3,3v20c0,1.654-1.346,3-3,3H5C3.346,34,2,32.654,2,31z M28,59c0,1.654-1.346,3-3,3H5 c-1.654,0-3-1.346-3-3V39c0-1.654,1.346-3,3-3h20c1.654,0,3,1.346,3,3V59z M56,59c0,1.654-1.346,3-3,3H33c-1.654,0-3-1.346-3-3V39 c0-1.654,1.346-3,3-3h20c1.654,0,3,1.346,3,3V59z"/> </g> </g> <g> <g> <path d="M49,43v-3c0-0.553-0.447-1-1-1h-3.5c-4.687,0-8.5,3.813-8.5,8.5c0,4.686,3.813,8.5,8.5,8.5H49v-2h-4.5 c-3.584,0-6.5-2.916-6.5-6.5s2.916-6.5,6.5-6.5H47v2H49z"/> </g> </g> <g> <g> <path d="M59,0H45c-2.757,0-5,2.243-5,5v5.586l-7.707,7.707c-0.286,0.286-0.372,0.716-0.217,1.09C32.23,19.757,32.596,20,33,20h26 c2.757,0,5-2.243,5-5V5C64,2.243,61.757,0,59,0z M62,15c0,1.654-1.346,3-3,3H35.414l6.293-6.293C41.894,11.519,42,11.266,42,11V5 c0-1.654,1.346-3,3-3h14c1.654,0,3,1.346,3,3V15z"/> </g> </g> <g> <g> <rect x="44" y="5" width="16" height="2"/> </g> </g> <g> <g> <rect x="44" y="9" width="16" height="2"/> </g> </g> <g> <g> <rect x="44" y="13" width="16" height="2"/> </g> </g> <g> <g> <rect x="56" y="22" width="2" height="2"/> </g> </g> <g> <g> <rect x="52" y="22" width="2" height="2"/> </g> </g> <g> <g> <rect x="48" y="22" width="2" height="2"/> </g> </g> <g> <g> <rect x="52" y="26" width="2" height="2"/> </g> </g> <g> <g> <rect x="48" y="26" width="2" height="2"/> </g> </g> <g> <g> <rect x="44" y="26" width="2" height="2"/> </g> </g> <g> <g> <rect x="23" y="30" width="2" height="2"/> </g> </g> <g> <g> <rect x="19" y="30" width="2" height="2"/> </g> </g> <g> <g> <rect x="15" y="30" width="2" height="2"/> </g> </g> <g> <g> <rect x="23" y="58" width="2" height="2"/> </g> </g> <g> <g> <rect x="19" y="58" width="2" height="2"/> </g> </g> <g> <g> <rect x="15" y="58" width="2" height="2"/> </g> </g> <g> <g> <rect x="51" y="58" width="2" height="2"/> </g> </g> <g> <g> <rect x="47" y="58" width="2" height="2"/> </g> </g> <g> <g> <rect x="43" y="58" width="2" height="2"/> </g> </g> </g>
</svg>